<svg width="68" height="84" viewBox="0 0 68 84" fill="none" xmlns="http://www.w3.org/2000/svg">
<path d="M27.7502 54.4967H40.2502L37.8544 41.0592C39.2433 40.3648 40.337 39.3579 41.1356 38.0384C41.9342 36.719 42.3335 35.2606 42.3335 33.6634C42.3335 31.3717 41.5176 29.4099 39.8856 27.778C38.2537 26.146 36.2919 25.3301 34.0002 25.3301C31.7085 25.3301 29.7467 26.146 28.1148 27.778C26.4828 29.4099 25.6669 31.3717 25.6669 33.6634C25.6669 35.2606 26.0662 36.719 26.8648 38.0384C27.6634 39.3579 28.7571 40.3648 30.146 41.0592L27.7502 54.4967ZM34.0002 83.6634C24.3474 81.2328 16.3787 75.6947 10.094 67.0488C3.80923 58.403 0.66687 48.8023 0.66687 38.2467V12.8301L34.0002 0.330078L67.3335 12.8301V38.2467C67.3335 48.8023 64.1912 58.403 57.9065 67.0488C51.6217 75.6947 43.653 81.2328 34.0002 83.6634Z" fill="#1C1E4D"/>
</svg>
