<svg width="492" height="595" viewBox="0 0 492 595" fill="none" xmlns="http://www.w3.org/2000/svg">
<path d="M45.7256 516.538C39.2041 519.559 32.1391 521.219 24.9617 521.405C11.7688 521.983 0.618568 511.82 0.0376302 498.691C0.0188903 498.187 0.000150366 497.684 0.0376302 497.162C0.0376302 482.802 11.7126 471.165 26.1423 471.146C26.4609 471.146 26.7608 471.146 27.0793 471.146C32.289 471.408 37.4238 472.284 42.4273 473.739C43.0832 473.776 43.7204 473.589 44.2638 473.216H45.3133V485.693H43.7391C42.6897 477.972 35.7372 472.433 27.9414 473.086C14.2987 473.086 7.30872 484.331 7.30872 496.677C6.2218 508.146 14.6735 518.328 26.1986 519.41C26.5734 519.447 26.9669 519.466 27.3604 519.484C31.502 519.447 35.5873 518.421 39.2415 516.501V506.822C39.2415 502.402 37.6674 500.966 32.7201 500.966H30.1714V499.53H51.0664V500.966C47.206 500.966 45.6506 502.458 45.6506 505.778L45.7818 516.501L45.7256 516.538Z" fill="white"/>
<path d="M78.7095 521.426C63.5489 521.426 50.7495 511.672 50.7495 497.313C50.6933 482.953 62.3495 471.279 76.7793 471.223C77.5476 471.223 78.316 471.26 79.103 471.316C93.1392 470.346 105.301 480.901 106.257 494.87C106.257 494.907 106.257 494.944 106.257 494.981C106.238 509.621 94.2824 521.482 79.5528 521.444C79.2717 521.444 78.9719 521.444 78.6908 521.444L78.7095 521.426ZM77.0791 473.069C63.4927 473.069 58.0768 485.676 58.0768 494.907C57.1024 507.476 66.5473 518.442 79.1593 519.411C79.5528 519.449 79.9463 519.467 80.3399 519.467C92.9518 519.467 99.0236 508.353 99.0236 497.443C99.0236 483.139 89.8785 473.069 77.0791 473.069Z" fill="white"/>
<path d="M113.581 480.415C113.581 476.07 113 473.925 107.566 473.925H104.886V472.489L114.612 472.042H126.231C131.59 471.669 136.95 472.713 141.766 475.026C144.746 476.853 146.545 480.117 146.47 483.604C146.17 488.416 142.46 492.35 137.662 492.966C144.127 494.029 148.944 499.456 149.225 505.964C149.094 514.226 142.272 520.809 133.97 520.678C133.483 520.678 132.996 520.641 132.509 520.585H104.492V519.093H106.254C112.776 519.093 113.9 517.657 113.9 512.603L113.581 480.434V480.415ZM120.103 492.313H128.536C135.976 492.313 139.705 489.385 139.705 483.343C139.705 477.301 136.444 473.067 126.643 473.067H120.122V492.313H120.103ZM120.103 510.179C120.103 516.035 122.389 518.105 128.911 518.105C135.245 518.944 141.054 514.543 141.916 508.239C142.029 507.419 142.047 506.58 141.972 505.759C141.822 498.934 136.144 493.525 129.304 493.675C129.004 493.675 128.704 493.693 128.405 493.73H119.972L120.103 510.179Z" fill="white"/>
<path d="M169.408 520.194H150.593V518.702C155.428 518.702 156.403 517.266 156.403 512.212V479.726C156.403 475.567 154.96 474.392 150.593 474.131V472.695H169.408V474.131C164.573 474.131 162.887 475.232 162.887 480.621V513.108C162.887 517.583 164.124 519.15 169.408 519.15V520.194Z" fill="white"/>
<path d="M207.092 502.833H205.593C205.012 497.368 203.494 496.79 200.364 496.79H187.303V513.164C187.303 516.67 188.614 517.397 191.482 517.397H203.363C208.779 517.397 210.409 515.309 212.377 508.688H213.745L212.508 520.195H171.43V518.703H173.585C180.107 518.703 180.837 517.006 180.837 512.213V479.727C180.837 475.437 179.863 473.237 174.316 473.237H172.611V471.801H209.772L210.428 482.524H208.985C208.01 476.034 206.043 474.598 203.307 474.598H186.984V493.508H201.151C203.888 493.508 205.274 492.203 205.593 487.727H207.092V502.87V502.833Z" fill="white"/>
<path d="M226.362 512.901C226.362 517.507 228.254 518.682 232.883 518.682H234.645V520.174H212.438V518.682H213.75C218.322 518.682 220.271 517.451 220.271 512.192V479.706C220.271 474.969 218.959 473.216 214.462 473.216H212.757V471.78C214.593 471.78 219.278 471.463 222.483 471.332C225.687 471.202 227.186 471.332 232.209 471.332C246.582 471.332 252.972 477.188 252.972 485.039C252.86 491.082 248.587 496.247 242.647 497.516C245.776 499.959 248.718 502.625 251.454 505.516L257.601 511.633C261.499 516.053 266.934 518.813 272.818 519.372V520.995C263.767 522.542 254.584 519.018 248.906 511.838L243.809 506.765C241.391 504.21 238.73 501.898 235.844 499.884H226.643L226.324 512.938L226.362 512.901ZM226.362 498.467C227.973 498.56 229.585 498.56 231.197 498.467C239.761 498.467 245.439 494.83 245.439 485.468C245.439 478.326 242.178 472.47 230.222 472.47C228.948 472.395 227.655 472.395 226.362 472.47V498.467Z" fill="white"/>
<path d="M316.106 521.478L276.078 479.76V512.769C276.078 518.289 277.259 519.259 283.855 519.259V520.956H265.902V519.464C270.737 519.464 272.424 517.842 272.424 514.336V476.441C270.493 475.154 268.207 474.501 265.902 474.557V473.065H278.252L314.701 510.885V480.208C314.701 475.527 313.258 474.688 307.13 474.557V473.065H325.214V474.557C319.405 474.557 318.168 475.527 318.168 478.53V521.497H316.144L316.106 521.478Z" fill="white"/>
<path d="M351.298 521.426C336.138 521.426 323.338 511.672 323.338 497.313C323.282 482.953 334.938 471.279 349.368 471.223C350.136 471.223 350.905 471.26 351.692 471.316C365.728 470.383 377.853 480.957 378.79 494.925V494.963C378.771 509.602 366.815 521.463 352.104 521.426C351.842 521.426 351.579 521.426 351.298 521.426ZM349.668 473.069C336.081 473.069 330.666 485.676 330.666 494.907C329.691 507.476 339.117 518.442 351.748 519.411C352.067 519.43 352.366 519.449 352.685 519.467C365.297 519.467 371.369 508.353 371.369 497.443C371.631 483.139 362.486 473.069 349.687 473.069H349.668Z" fill="white"/>
<path d="M404.914 479.951C404.914 474.953 403.602 473.461 399.029 473.461H397.53V472.025L408.437 471.577H421.498C441.944 471.577 450.958 481.909 450.958 494.59C450.601 509.117 438.495 520.624 423.878 520.27C423.372 520.27 422.848 520.232 422.342 520.195H397.586V518.703H398.898C403.077 518.703 404.97 517.528 404.97 513.108L404.914 479.969V479.951ZM411.435 514.47C411.435 517.659 411.435 518.703 417.957 518.703C428.338 518.703 432.649 517.267 437.54 512.213C441.812 507.737 444.155 501.751 444.061 495.578C444.174 489.424 441.831 483.494 437.54 479.074C432.18 474.319 425.096 471.969 417.957 472.584C415.783 472.547 413.59 472.659 411.435 472.901V514.488V514.47Z" fill="white"/>
<path d="M484.99 502.833H483.284C482.703 497.368 481.185 496.79 478 496.79H464.938V513.164C464.938 516.67 466.25 517.397 469.117 517.397H481.073C486.489 517.397 488.063 515.309 490.012 508.688H491.38L490.143 520.195H449.253V518.703H451.408C457.611 518.703 458.716 517.006 458.716 512.213V479.727C458.716 475.437 457.667 473.237 452.513 473.237H450.621V471.801H487.782L488.363 482.524H487.182C486.208 476.034 484.24 474.598 481.429 474.598H465.107V493.508H478.955C481.766 493.508 483.078 492.203 483.453 487.727H484.952V502.87L484.99 502.833Z" fill="white"/>
<path d="M36.4491 575.88H34.95C34.369 570.36 32.8511 569.391 29.6653 569.391H16.6036V586.025C16.6036 589.606 17.9716 590.315 20.8575 590.315H32.6824C38.1732 590.315 39.8036 588.226 41.7525 581.475H43.1955L41.8837 593.112H0V591.62H2.47367C8.99516 591.62 9.8572 589.923 9.8572 585.13V552.644C9.8572 548.224 8.80776 546.154 3.33571 546.154H1.83651V544.662H39.5225L40.1784 555.516H38.7354C37.7609 549.026 35.737 547.459 32.926 547.459H16.3412V566.948H30.4524C33.2634 566.948 34.5751 565.586 34.95 561.036H36.4491V575.918V575.88Z" fill="white"/>
<path d="M80.9932 593.427H45.7247V591.935H48.2733C51.9276 591.935 53.2394 590.76 53.2394 586.807V552.231C53.2394 548.073 52.0025 546.376 47.0365 546.376H46.1182V544.884H69.2995V546.376H66.3573C61.2601 546.376 59.8358 546.898 59.8358 551.709V587.72C59.8358 589.865 60.6791 590.648 62.9654 590.648H74.5279C79.1567 590.648 80.5434 588.821 85.4908 582.07H86.9338L80.9932 593.446V593.427Z" fill="white"/>
<path d="M109.722 581.604C110.94 587.87 116.375 592.44 122.784 592.589C128.162 593.13 132.978 589.232 133.522 583.88C133.522 583.712 133.559 583.544 133.559 583.357C133.559 572.112 108.41 568.662 108.41 555.03C109.01 548.167 115.082 543.076 121.997 543.673C122.128 543.673 122.259 543.691 122.39 543.71C125.988 543.99 129.567 544.642 133.034 545.668C133.69 545.668 133.953 545.668 134.477 544.885H135.714L137.157 554.769H135.845C133.915 549.416 128.893 545.78 123.177 545.612C118.024 545.612 114.426 548.54 114.426 552.885C114.426 564 139.631 566.984 139.631 581.343C138.881 589.269 131.816 595.106 123.852 594.379C123.758 594.379 123.664 594.379 123.571 594.342C119.935 594.006 116.318 593.391 112.795 592.458C112.158 592.458 111.577 592.775 111.221 593.297H109.909L108.204 581.474L109.703 581.604H109.722Z" fill="white"/>
<path d="M157.846 571.925L153.349 584.14C152.618 585.706 152.093 587.366 151.775 589.082C151.775 591.17 153.799 591.935 158.296 591.935H159.533V593.427H141.243V591.935C146.34 591.935 147.183 591.021 149.676 584.196L163.974 545.201L163.262 543.709H170.121L186.518 587.049C187.324 590.257 190.416 592.345 193.696 591.916V593.408H172.07V591.916H174.094C178.591 591.916 180.241 591.469 180.241 589.324C180.184 588.187 179.885 587.086 179.397 586.079L174.113 571.906H157.846V571.925ZM165.886 550.292L159.364 568.493H172.951L165.905 550.292H165.886Z" fill="white"/>
<path d="M228.59 593.427H193.321V591.935H195.926C199.524 591.935 200.817 590.76 200.817 586.807V552.231C200.817 548.073 199.58 546.376 194.614 546.376H193.509V544.884H216.69V546.376H213.823C208.725 546.376 207.301 546.898 207.301 551.709V587.72C207.301 589.865 208.144 590.648 210.431 590.648H222.05C226.678 590.648 228.121 588.821 233.012 582.07H234.455L228.571 593.446L228.59 593.427Z" fill="white"/>
<path d="M246.223 594.658L229.17 552.418C227.202 547.551 226.302 546.376 221.468 546.376V544.884H243.093V546.376C235.841 546.376 234.154 548.129 235.654 551.71L249.765 586.732L262.171 554.246C262.883 552.698 263.351 551.057 263.539 549.378C263.539 547.047 261.571 546.133 256.23 546.133V544.642H274.314V546.133C270.191 546.133 267.793 547.961 266.218 552.623L250.027 594.21L246.242 594.658H246.223Z" fill="white"/>
<path d="M281.942 571.925L277.444 584.14C276.713 585.706 276.189 587.366 275.87 589.082C275.87 591.17 277.894 591.935 282.392 591.935H283.628V593.427H265.282V591.935C270.435 591.935 271.297 591.021 273.771 584.196L288.07 545.201L287.358 543.709H293.879L310.277 587.049C311.082 590.257 314.174 592.345 317.454 591.916V593.408H296.165V591.916H298.189C302.687 591.916 304.336 591.469 304.336 589.324C304.28 588.187 303.98 587.086 303.493 586.079L298.208 571.906H281.942V571.925ZM289.981 550.292L283.46 568.493H297.046L290 550.292H289.981Z" fill="white"/>
<path d="M324.519 552.679C324.519 547.606 323.207 546.189 318.579 546.189H317.005V544.697C319.872 544.697 323.526 544.38 328.042 544.249C332.559 544.119 337.187 544.249 341.104 544.249C361.868 544.249 371.013 554.711 371.013 567.579C370.713 582.293 358.476 593.967 343.69 593.669C343.109 593.669 342.528 593.632 341.947 593.576H317.005V592.084H318.316C322.57 592.084 324.519 590.909 324.519 586.433V552.697V552.679ZM331.041 587.646C331.041 590.89 331.041 591.935 337.562 591.935C348.075 591.935 352.46 590.499 357.145 585.445C361.437 580.857 363.779 574.815 363.667 568.549C363.798 562.32 361.456 556.297 357.145 551.784C351.636 546.879 344.309 544.511 336.963 545.294C334.789 545.145 332.615 545.145 330.441 545.294L331.022 587.664L331.041 587.646Z" fill="white"/>
<path d="M403.022 594.658C387.618 594.658 374.687 584.849 374.687 570.228C374.65 555.589 386.531 543.672 401.242 543.635C401.973 543.635 402.685 543.653 403.416 543.709C417.714 542.852 430.026 553.612 431.038 567.822C431.038 582.648 418.989 594.677 404.09 594.677C403.734 594.677 403.378 594.677 403.022 594.658ZM401.317 545.649C387.543 545.649 381.734 558.647 381.734 567.804C380.909 580.56 390.616 591.562 403.434 592.383C403.922 592.42 404.428 592.439 404.915 592.439C417.977 592.439 423.861 581.194 423.861 570.154C423.599 555.85 414.322 545.649 401.336 545.649H401.317Z" fill="white"/>
<path d="M444.492 585.949C444.492 590.63 446.385 591.804 451.014 591.804H452.85V593.296H430.325V591.804H431.693C436.321 591.804 438.214 590.574 438.214 585.315V552.623C438.214 547.756 436.846 546.133 432.33 546.133H430.568V544.641C432.461 544.641 437.09 544.324 440.5 544.194C443.911 544.063 445.26 544.194 450.358 544.194C464.919 544.194 471.384 550.105 471.384 558.106C471.384 564.316 467.074 569.705 461.002 571.104C464.15 573.603 467.13 576.289 469.941 579.161L476.462 585.333C480.398 589.828 485.907 592.662 491.867 593.259V594.62C482.684 596.224 473.352 592.662 467.636 585.333L462.482 580.205C459.84 577.519 456.935 575.095 453.787 572.988H444.455V585.986L444.492 585.949ZM444.492 571.253C446.104 571.384 447.715 571.384 449.327 571.253C458.079 571.253 463.757 567.542 463.757 558.255C463.757 550.982 460.496 545.257 448.409 545.257C447.097 545.182 445.804 545.182 444.492 545.257V571.253Z" fill="white"/>
<path d="M246.093 0L251.827 11.6369L264.757 13.5205L255.425 22.5466L257.655 35.3584L246.093 29.2975L234.53 35.3584L236.741 22.5466L227.409 13.5205L240.339 11.6369L246.093 0Z" fill="white"/>
<path d="M330.854 21.5781L336.663 33.2151L349.538 35.024L340.205 44.0687L342.416 56.8619L330.854 50.8196L319.366 56.8619L321.521 44.0687L312.17 35.024L325.119 33.2151L330.854 21.5781Z" fill="white"/>
<path d="M395.902 73.8867L401.655 85.5236L414.585 87.4072L405.253 96.4333L407.408 109.245L395.902 103.203L384.339 109.245L386.569 96.4333L377.237 87.4072L390.092 85.5236L395.902 73.8867Z" fill="white"/>
<path d="M433.005 148.894L438.815 160.53L451.67 162.414L442.338 171.44L444.568 184.177L433.005 178.21L421.499 184.177L423.729 171.44L414.378 162.414L427.252 160.53L433.005 148.894Z" fill="white"/>
<path d="M434.426 235.908L440.254 247.545L453.109 249.429L443.777 258.473L445.988 271.211L434.426 265.224L422.938 271.211L425.093 258.473L415.761 249.429L428.691 247.545L434.426 235.908Z" fill="white"/>
<path d="M395.974 311.232L401.709 322.869L414.639 324.697L405.307 333.798L407.537 346.535L395.974 340.493L384.412 346.535L386.623 333.798L377.29 324.697L390.221 322.869L395.974 311.232Z" fill="white"/>
<path d="M331.319 363.616L337.053 375.253L349.927 377.137L340.576 386.163L342.806 398.975L331.319 392.932L319.756 398.975L321.967 386.163L312.635 377.137L325.491 375.253L331.319 363.616Z" fill="white"/>
<path d="M246.02 382.003L251.829 393.64L264.704 395.523L255.371 404.568L257.582 417.361L246.02 411.319L234.532 417.361L236.687 404.568L227.336 395.523L240.285 393.64L246.02 382.003Z" fill="white"/>
<path d="M162.681 363.69L168.509 375.327L181.365 377.211L172.032 386.237L174.243 398.974L162.681 392.988L151.137 398.974L153.348 386.237L144.016 377.211L156.946 375.327L162.681 363.69Z" fill="white"/>
<path d="M97.9701 311.306L103.704 322.943L116.635 324.826L107.303 333.852L109.533 346.664L97.9701 340.622L86.4638 346.664L88.6189 333.852L79.2864 324.826L92.2169 322.943L97.9701 311.306Z" fill="white"/>
<path d="M59.4432 236.507L65.1776 248.069L78.1082 249.953L68.7757 258.979L70.987 271.791L59.4432 265.748L47.8807 271.791L50.092 258.979L40.7595 249.953L53.6901 248.069L59.4432 236.507Z" fill="white"/>
<path d="M59.4432 148.894L65.1776 160.53L78.1082 162.414L68.7757 171.44L70.987 184.177L59.4432 178.21L47.8807 184.177L50.092 171.44L40.7595 162.414L53.6901 160.53L59.4432 148.894Z" fill="white"/>
<path d="M96.0032 74.0186L101.813 85.6555L114.687 87.4831L105.354 96.5651L107.566 109.302L96.0032 103.26L84.5156 109.302L86.6707 96.5651L77.3195 87.4831L90.2688 85.6555L96.0032 74.0186Z" fill="white"/>
<path d="M162.552 21.5781L168.38 33.2151L181.236 35.0986L171.903 44.1247L174.115 56.9365L162.552 50.8756L151.064 56.9365L153.294 44.1247L143.943 35.0986L156.818 33.2151L162.552 21.5781Z" fill="white"/>
<path d="M344.964 238.838C344.102 238.801 343.371 239.472 343.334 240.33C343.334 240.349 343.334 240.368 343.334 240.405C343.334 241.3 344.064 242.027 344.964 242.027H345.358C346.238 241.99 346.932 241.281 346.932 240.405C346.932 239.547 346.238 238.838 345.358 238.838H344.964Z" fill="white"/>
<path d="M362.73 216.55C361.344 216.774 360.013 217.259 358.814 217.986C358.139 218.452 357.389 218.751 356.602 218.9C357.052 217.949 357.258 216.905 357.183 215.842V208.177C357.183 208.177 356.209 211.105 354.841 211.758C353.473 212.41 350.718 213.455 350.268 214.424C349.818 215.394 347.795 215.394 347.064 218.266C346.858 219.534 346.464 220.765 345.883 221.903L345.227 222.872C346.202 218.602 346.745 214.256 346.858 209.874V207.86C347.457 207.356 348.019 206.797 348.563 206.237C349.144 205.268 356.659 202.731 357.708 200.717C358.757 198.703 359.282 197.398 359.807 196.559C360.519 194.843 360.931 193.015 360.987 191.169C360.894 188.689 360.613 186.208 360.144 183.765C358.982 184.344 357.933 185.146 357.071 186.097C356.846 186.432 356.546 186.712 356.228 186.936C356.359 186.246 356.359 185.537 356.228 184.847C355.178 182.311 353.548 178.861 353.548 178.861C353.548 178.861 352.18 181.005 351.393 182.367C350.156 184.828 348.919 185.034 348.713 186.003C348.525 186.973 347.007 187.7 346.502 189.714C346.333 190.218 346.202 190.74 346.108 191.281C345.527 186.992 344.796 183.094 344.009 179.588C344.009 178.488 344.796 176.008 345.771 175.243C347.064 173.956 347.682 172.166 347.476 170.376C347.42 168.828 347.176 167.317 346.764 165.825C346.764 164.65 342.847 159.335 343.166 158.161L340.617 163.811C338.799 162.002 336.738 160.436 334.47 159.205L331.66 154.393V151.932C332.034 150.272 332.034 148.538 331.66 146.859C331.21 145.684 330.217 144.715 329.692 143.223C329.448 141.861 328.755 140.593 327.724 139.642L324.857 136.714C324.857 136.714 324.332 138.859 323.939 140.612C323.545 140.407 323.133 140.239 322.702 140.09C322.14 139.903 321.615 139.642 321.128 139.306C320.284 138.206 319.422 137.106 318.654 136.192C319.122 135.912 319.404 135.427 319.441 134.887C319.441 133.991 318.71 133.264 317.811 133.264C316.949 133.264 316.237 133.954 316.237 134.831C316.237 134.849 316.237 134.868 316.237 134.905C316.237 135.763 316.93 136.472 317.811 136.472C318.092 136.546 318.373 136.546 318.654 136.472C318.654 136.789 319.497 137.777 320.491 139.269C319.703 138.822 318.916 138.43 318.598 138.169C318.279 137.908 317.623 142.514 319.048 145.181H318.392C316.555 144.715 314.662 144.528 312.77 144.659C313.482 144.659 315.243 146.542 315.449 147.512C316.068 148.985 317.08 150.235 318.392 151.149C319.703 151.857 320.922 152.771 321.99 153.815C323.882 154.785 326.019 155.195 328.136 154.99C328.774 155.4 329.542 155.587 330.291 155.512C331.135 157.079 332.053 158.627 332.971 160.193C332.578 161.536 332.372 162.953 332.39 164.352L327.106 163.177C327.331 165.322 328.043 167.392 329.205 169.219C328.98 169.424 328.811 169.704 328.755 170.003C328.586 170.487 328.586 171.01 328.755 171.494C329.336 172.334 330.16 172.986 331.097 173.378L311.514 187.29C312.451 170.264 311.795 153.181 309.546 136.267C311.964 135.353 311.308 134.253 311.308 134.253L310.39 131.921C310.633 131.996 310.877 131.996 311.102 131.921C311.552 131.921 311.983 131.735 312.282 131.399C312.92 130.728 312.92 129.665 312.282 128.994C311.795 128.565 311.27 128.192 310.708 127.893L313.575 127.502L315.206 120.676L308.684 122.951V125.805C308.197 125.282 307.635 124.872 306.979 124.574C306.286 123.902 305.18 123.902 304.505 124.574C303.849 125.264 303.849 126.345 304.505 127.035C305.217 127.651 306.061 128.08 306.979 128.266L273.603 164.855L251.471 128.005C251.902 120.21 250.778 112.433 248.211 105.067C248.51 103.855 248.642 102.605 248.604 101.356C249.597 101.057 250.384 100.274 250.703 99.2672C250.703 99.2672 249.073 97.3091 248.098 96.4139H249.335C250.291 96.4512 251.134 95.7425 251.228 94.7914C251.153 93.8403 250.347 93.1317 249.391 93.169C248.754 93.0758 248.117 93.0758 247.499 93.169L249.335 90.9684L245.868 84.8516L242.476 91.0244L244.313 93.169C243.713 93.0758 243.095 93.0758 242.476 93.169C241.933 93.169 241.427 93.3741 241.033 93.7471C240.452 94.2879 240.434 95.2017 240.977 95.7612C240.996 95.7798 241.015 95.7985 241.033 95.8171C241.408 96.1901 241.933 96.4139 242.476 96.3953H243.451C242.814 96.992 242.214 97.6447 241.689 98.3534C241.483 98.4839 241.314 98.6704 241.164 98.8756C241.389 99.3604 241.727 99.7894 242.139 100.106C236.611 109.99 234.774 121.497 236.985 132.593L217.852 164.445L184.345 127.725C185.338 127.595 186.256 127.147 186.95 126.42C187.362 126.084 187.624 125.581 187.662 125.059C187.662 124.648 187.531 124.275 187.268 123.958C186.987 123.679 186.613 123.511 186.219 123.511C185.694 123.511 185.188 123.697 184.776 124.033C184.308 124.443 183.914 124.928 183.595 125.469V122.616L177.074 120.34L178.704 127.166L181.571 127.558C180.991 127.856 180.466 128.21 179.997 128.658C179.623 129.012 179.379 129.497 179.341 130.019C179.341 130.411 179.473 130.784 179.735 131.064C180.016 131.362 180.372 131.548 180.784 131.586C181.047 131.642 181.309 131.642 181.571 131.586L180.653 133.917C180.653 133.917 179.997 135.017 182.415 135.931C180.147 152.846 179.491 169.928 180.447 186.954L160.527 173.042C161.482 172.669 162.269 172.017 162.813 171.159C163.056 170.842 163.225 170.45 163.263 170.059C163.225 169.686 163.056 169.35 162.813 169.089C163.975 167.261 164.706 165.191 164.968 163.047L159.683 164.221C159.665 162.823 159.458 161.424 159.102 160.063C159.946 158.496 160.864 156.948 161.782 155.382C162.513 155.456 163.263 155.27 163.881 154.86C165.999 155.065 168.135 154.655 170.028 153.685C171.115 152.622 172.351 151.727 173.682 151.018C174.881 150.03 175.8 148.761 176.362 147.307C176.362 146.337 178.255 144.454 178.967 144.454C177.093 144.323 175.219 144.509 173.42 144.976H172.708C174.207 142.309 173.813 137.572 173.232 137.964L171.339 139.064L173.101 136.267C173.382 136.341 173.663 136.341 173.944 136.267C174.769 136.024 175.256 135.166 175.031 134.346C174.806 133.525 173.926 133.04 173.101 133.264C172.276 133.488 171.789 134.364 172.014 135.185C172.164 135.707 172.576 136.117 173.101 136.267C172.314 137.18 171.527 138.281 170.684 139.381C170.196 139.698 169.672 139.959 169.109 140.164C168.678 140.313 168.266 140.481 167.873 140.686C167.423 138.933 166.954 136.789 166.954 136.789L164.012 139.717C163.038 140.705 162.363 141.936 162.044 143.297C161.482 144.565 160.826 145.778 160.077 146.934C159.702 148.594 159.702 150.328 160.077 152.006V154.468L157.266 159.279C155.036 160.566 152.974 162.114 151.119 163.886C150.463 162.319 148.645 158.235 148.645 158.235C148.645 159.671 145.254 164.725 144.991 165.9C144.598 167.392 144.373 168.921 144.335 170.45C144.092 172.24 144.691 174.031 145.966 175.318C147.015 176.101 147.409 178.562 147.727 179.663C146.94 183.169 146.228 187.066 145.703 191.356C145.61 190.833 145.478 190.311 145.31 189.789C144.729 187.775 143.211 187.122 143.098 186.078C142.986 185.034 141.599 184.903 140.362 182.441C139.575 181.08 138.207 178.935 138.207 178.935C138.207 178.935 136.633 182.385 135.602 184.922C135.34 185.593 135.209 186.283 135.209 187.01C134.89 186.768 134.609 186.47 134.366 186.171C133.541 185.201 132.51 184.4 131.367 183.84C130.861 186.283 130.58 188.763 130.524 191.244C130.58 193.09 130.974 194.918 131.705 196.633C132.154 197.472 132.754 198.834 133.803 200.792C134.853 202.75 142.293 205.342 142.949 206.312C143.454 206.89 143.998 207.431 144.579 207.934V209.949C144.673 214.331 145.197 218.676 146.153 222.947V222.033C145.591 220.877 145.179 219.665 144.972 218.397C144.185 215.543 142.236 215.543 141.768 214.555C141.299 213.566 138.638 212.597 137.139 211.888C135.64 211.179 134.797 208.307 134.797 208.307V215.972C134.722 217.017 134.928 218.079 135.378 219.031C134.553 218.881 133.785 218.583 133.091 218.117C131.911 217.39 130.599 216.905 129.231 216.681C129.549 219.217 130.018 221.735 130.674 224.215C131.292 226.08 132.286 227.814 133.616 229.288C134.272 229.996 135.246 231.171 136.952 232.868C140.381 234.64 144.054 235.889 147.858 236.579C149.264 236.971 150.482 237.885 151.25 239.115C151.25 239.694 151.569 240.29 151.7 240.682C152.225 242.771 152.937 245.288 153.799 248.086C152.056 246.389 149.714 245.419 147.277 245.419C145.572 245.419 139.051 243.461 139.051 243.461C140.793 245.549 141.993 248.03 142.574 250.678C140.044 250.23 137.458 250.23 134.928 250.678C137.57 252.636 139.8 255.116 141.449 257.951C142.461 260.543 143.848 262.967 145.572 265.168C146.359 265.616 148.514 268.282 149.939 269.718C151.363 271.154 157.191 270.427 159.14 270.427C160.676 270.707 162.157 271.154 163.581 271.788C165.399 274.157 167.46 276.339 169.728 278.278C167.741 277.476 165.924 276.301 164.368 274.828C163.45 273.523 164.368 279.062 165.605 280.87C164.106 280.852 162.644 280.423 161.351 279.64C159.777 278.409 161.351 284.059 162.925 285.626C166.655 288.945 166.317 289.468 166.917 289.729C164.05 290.661 161.033 290.978 158.034 290.643C156.273 289.673 160.002 293.048 162.213 293.887C164.424 294.727 165.024 297.132 168.735 298.233C171.808 299.594 175.106 300.34 178.461 300.433C180.185 299.855 181.965 299.426 183.745 299.128C186.931 297.729 190.211 296.536 193.546 295.547C197.369 297.916 201.323 300.079 205.371 302.037H205.952H204.584C201.698 302.876 198.7 303.193 195.701 303.007C194.333 302.298 197.201 306.196 198.962 307.688C196.282 308.266 193.528 308.452 190.792 308.266C188.824 307.874 194.708 313.469 196.994 314.121C195.57 314.644 194.071 314.979 192.553 315.091C190.529 315.091 199.075 320.425 201.248 320.089C208.632 319.045 215.622 321.525 219.014 320.089C222.406 318.653 223.905 318.075 225.535 317.628C227.166 317.18 227.953 315.669 228.871 314.961C229.846 313.786 231.045 312.797 232.394 312.107C232.544 312.145 232.694 312.145 232.844 312.107C235.43 312.257 238.035 312.257 240.621 312.107C239.459 312.555 238.372 313.189 237.416 313.991C233.631 315.166 230.895 316.192 229.583 316.658C225.123 319.604 220.982 322.998 217.234 326.803C217.234 326.803 223.755 326.281 224.486 326.281C225.217 326.281 227.615 321.991 228.609 321.283C229.583 320.574 230.501 320.238 232.863 319.138C229.864 323.334 230.576 329.115 234.493 332.453C232.788 330.495 234.493 327.12 234.493 327.12L237.885 329.264C235.318 324.528 237.079 318.616 241.839 316.042C242.045 315.93 242.251 315.837 242.458 315.744H243.113C244.05 317.199 245.981 317.628 247.442 316.695C247.836 316.453 248.154 316.117 248.398 315.744L249.766 316.192C254.451 318.653 256.269 324.416 253.795 329.097C253.795 329.134 253.758 329.171 253.739 329.19L257.131 327.045C257.131 327.045 259.024 330.421 257.131 332.379C260.598 329.302 261.497 324.248 259.286 320.164C261.31 321.133 262.678 321.861 262.94 322.047C263.203 322.234 266.07 327.045 267.063 327.045C268.056 327.045 274.315 327.567 274.315 327.567C270.567 323.763 266.426 320.369 261.966 317.422C261.047 316.975 258.236 316.061 254.713 314.961C253.72 314.066 252.558 313.376 251.321 312.872C253.908 313.021 256.512 313.021 259.099 312.872C260.41 313.599 261.572 314.55 262.565 315.669C263.54 316.378 264.402 317.758 265.901 318.336C267.4 318.914 269.237 319.642 272.423 320.798C275.627 321.973 282.805 319.698 290.188 320.798C292.474 321.115 300.907 315.669 298.883 315.8C297.365 315.688 295.866 315.352 294.442 314.83C296.728 314.177 302.538 308.34 300.589 308.974C297.853 309.161 295.098 308.974 292.418 308.396C294.255 306.904 297.047 303.007 295.754 303.715C292.905 303.715 290.094 303.249 287.396 302.354H286.028H286.684C290.544 300.47 294.592 298.251 298.509 295.864C301.826 296.853 305.068 298.046 308.235 299.445C310.034 299.725 311.795 300.172 313.519 300.75C316.892 300.638 320.228 299.892 323.32 298.55C326.787 297.449 326.319 295.361 329.523 294.204C332.728 293.03 335.464 289.971 333.702 290.96C330.704 291.295 327.687 290.978 324.819 290.046C325.475 290.046 324.819 289.262 328.867 285.943C330.573 284.376 331.997 278.726 330.366 279.957C329.167 280.442 327.874 280.609 326.581 280.479C327.63 278.651 328.736 273.131 327.762 274.437C326.244 275.947 324.407 277.122 322.402 277.887C324.801 275.947 326.993 273.765 328.923 271.397C330.329 270.781 331.791 270.315 333.29 270.035C335.258 270.035 341.067 270.744 342.491 269.327C343.934 267.891 346.089 265.224 346.858 264.776C348.6 262.595 349.987 260.17 350.98 257.559C352.667 254.743 354.897 252.282 357.502 250.286C354.991 249.839 352.423 249.839 349.931 250.286C350.324 247.843 351.261 245.512 352.667 243.461C352.667 243.461 346.145 245.158 344.496 245.419C342.041 245.4 339.699 246.351 337.975 248.086L340.074 240.682C340.167 240.16 340.299 239.638 340.467 239.115C341.254 237.885 342.454 236.99 343.859 236.579C348.694 234.957 353.06 234.621 354.822 232.868L358.158 229.288C359.432 227.777 360.425 226.061 361.1 224.215C361.793 221.697 362.337 219.124 362.73 216.55ZM345.302 211.869C345.096 215.282 344.59 218.676 343.803 222.014C343.728 220.653 343.372 219.329 342.754 218.117C342.041 216.681 341.048 216.681 340.598 215.189C340.149 213.697 338.443 213.231 337.469 212.075C336.569 211.123 335.595 210.247 334.527 209.482C333.815 212.466 333.646 215.543 334.002 218.583C334.208 219.068 334.339 219.571 334.396 220.075L333.084 219.236C331.847 222.089 333.084 225.017 333.796 227.628C334.227 228.821 334.808 229.959 335.501 231.003C335.951 231.973 335.501 232.887 336.213 233.67C336.925 234.453 337.713 234.379 338.818 235.367C338.818 236.654 339.024 237.922 339.399 239.134C338.481 242.249 337.431 245.624 336.326 248.552C336.232 247.377 335.857 246.239 335.22 245.232C334.246 244.151 333.515 242.901 333.065 241.521C332.091 238.929 330.123 238.929 329.86 236.262C329.429 238.164 329.13 240.104 328.942 242.043C328.755 243.722 328.886 245.419 329.336 247.041C329.429 248.142 329.261 249.261 328.886 250.286C328.905 248.85 328.586 247.433 327.968 246.128C327.48 245.232 327.293 244.207 327.443 243.2C326.412 244.971 325.157 246.612 323.714 248.067L322.87 246.575C335.539 224.476 332.596 186.656 332.072 181.584C334.171 181.192 333.777 180.092 333.777 180.092L333.065 177.294C333.252 177.462 333.477 177.574 333.721 177.611H334.171C334.452 177.705 334.752 177.705 335.014 177.611C335.37 177.35 335.595 176.94 335.595 176.511C336.27 177.425 337.169 178.134 338.2 178.6C339.961 179.122 341.404 179.905 341.592 180.558C342.679 185.108 343.503 189.696 344.065 194.339C342.173 192.195 341.648 187.85 337.544 185.891C337.656 186.861 337.656 187.85 337.544 188.819C337.244 190.05 337.113 191.318 337.15 192.586C335.82 191.747 334.695 190.647 333.815 189.342C333.402 192.437 333.74 195.57 334.789 198.498C336.551 201.613 336.551 203.31 338.387 203.962C339.474 204.354 340.467 204.951 341.329 205.715C342.191 206.331 343.203 206.741 344.271 206.89C344.534 206.89 344.796 207.039 344.927 207.282C345.002 207.767 345.134 208.252 345.321 208.718C345.321 209.632 345.321 210.862 345.265 211.907L345.302 211.869ZM176.343 185.873L189.405 194.843C189.255 199.636 189.873 204.41 191.241 209.016L180.597 226.751C178.761 223.04 174.319 210.564 176.343 185.873ZM156.76 175.411C157.228 174.553 158.034 173.938 158.971 173.714C159.065 174.683 158.765 175.653 158.128 176.381C157.997 176.642 157.753 176.828 157.472 176.903C157.266 176.977 157.022 176.977 156.816 176.903C156.76 176.772 156.741 176.642 156.76 176.511C156.591 176.157 156.591 175.765 156.76 175.411ZM199.018 145.703L209.007 157.004C208.388 163.364 209.082 169.779 211.031 175.858L201.698 191.393C199.674 186.843 195.102 173.527 198.962 145.703H199.018ZM238.991 138.486C243.526 137.665 248.173 137.665 252.708 138.486L254.151 140.892C248.66 139.698 242.982 139.698 237.491 140.892L238.991 138.486ZM240.171 136.528L245.849 127.035L251.528 136.453C247.742 135.95 243.882 135.968 240.096 136.509H240.152L240.171 136.528ZM236.255 143.018C242.532 141.302 249.166 141.302 255.463 143.018L257.037 145.61C249.804 143.092 241.933 143.092 234.699 145.61L236.273 143.018H236.255ZM233.125 148.221C241.239 144.733 250.422 144.733 258.536 148.221L297.722 213.66H283.423L281.53 212.354L280.874 211.702C279.937 211.049 278.775 210.844 277.67 211.123C277.07 211.217 276.508 211.422 275.964 211.702C275.421 211.963 274.915 212.298 274.465 212.671H273.753C272.516 212.019 271.336 211.254 270.23 210.396C269.911 210.079 269.537 209.818 269.124 209.613C268.469 209.259 267.719 209.072 266.969 209.091C266.445 209.035 265.92 209.035 265.395 209.091C264.683 209.352 264.008 209.669 263.371 210.06L262.191 210.9C261.46 210.452 260.691 210.06 259.904 209.725C259.174 209.445 258.48 209.091 257.805 208.68C256.869 208.121 255.969 207.506 255.126 206.797L254.151 206.088C253.439 205.697 252.671 205.454 251.865 205.38C251.303 205.286 250.722 205.286 250.16 205.38C249.429 205.51 248.717 205.79 248.061 206.163L247.011 206.816V184.269C249.429 184.269 251.265 183.299 251.265 182.255C250.815 178.786 249.447 175.523 247.274 172.763C245.812 171.812 243.919 171.812 242.439 172.763C242.439 172.763 239.497 174.516 240.996 176.921C240.996 176.921 240.996 177.63 242.626 176.921C243.188 176.716 243.582 176.213 243.676 175.616V176.455C243.676 177.294 242.495 177.761 242.439 177.816C241.839 179.308 241.427 180.856 241.202 182.423C241.202 183.467 243.095 184.306 245.512 184.437V207.45C244.519 206.834 243.563 206.163 242.645 205.436C242.326 205.137 241.97 204.876 241.595 204.652C240.883 204.261 240.115 204.018 239.309 203.944C238.653 203.85 237.997 203.85 237.341 203.944C236.573 204.13 235.824 204.41 235.13 204.783C234.437 205.174 233.762 205.603 233.106 206.088L232.263 205.566L230.951 204.913C230.333 204.727 229.752 204.466 229.19 204.13C227.578 203.31 226.06 202.303 224.692 201.146L224.299 200.829C223.23 199.99 221.937 199.468 220.569 199.337H219.52C218.639 199.449 217.796 199.673 216.971 199.99C216.015 200.382 215.135 200.885 214.291 201.482C213.336 202.116 212.455 202.843 211.612 203.627C210.562 204.671 209.588 205.771 208.613 206.946C207.695 208.046 206.852 209.221 206.14 210.452C205.559 211.161 204.959 211.832 204.303 212.466L203.066 213.566H193.79L233.106 148.183L233.125 148.221ZM289.738 191.318L280.462 175.784C282.411 169.704 283.104 163.289 282.486 156.93L292.68 145.684C296.541 173.509 291.893 186.768 289.682 191.3H289.738V191.318ZM332.784 173.714C333.721 173.956 334.527 174.572 334.995 175.411C335.089 175.691 335.089 175.989 334.995 176.25C335.07 176.436 335.07 176.642 334.995 176.828C334.789 176.903 334.545 176.903 334.339 176.828C334.039 176.735 333.796 176.548 333.627 176.306C333.009 175.579 332.69 174.646 332.709 173.714H332.765H332.784ZM311.102 226.807L300.458 208.997C301.844 204.41 302.444 199.617 302.219 194.824L315.281 185.854C317.305 210.489 312.863 222.966 311.027 226.807H311.083H311.102ZM172.97 247.992L182.902 231.544H304.899L304.318 231.227C303.587 230.798 302.894 230.332 302.219 229.791C300.982 228.821 299.877 227.833 298.752 226.807C297.647 225.763 295.623 223.749 294.048 222.201L291.106 219.012L289.795 217.651C288.97 216.867 288.07 216.177 287.115 215.562L285.803 214.853H298.865L318.654 247.992H172.951H172.97ZM193.078 214.462H200.593C199.15 215.674 197.65 216.849 196.095 217.968H195.645L193.228 219.59C191.916 220.56 190.754 221.604 189.573 222.648L186.107 225.893L193.097 214.462H193.078ZM245.325 209.911L246.168 210.303L247.142 210.695C247.986 211.179 248.792 211.72 249.56 212.317C250.853 213.343 252.052 214.48 253.158 215.692C254.788 217.52 256.494 219.329 258.255 221.082L260.41 223.283C262.247 225.11 264.065 226.863 266.032 228.542L266.426 228.859H257.15L256.494 228.336C255.182 227.292 253.889 226.248 252.633 225.091C251.378 223.935 249.766 222.499 248.379 221.194C245.381 218.21 242.439 215.208 239.628 212.093L238.129 210.471C237.042 209.315 235.861 208.252 234.605 207.282C235.205 206.834 235.861 206.461 236.573 206.181H237.81C238.522 206.107 239.253 206.256 239.909 206.573C240.227 206.741 240.527 206.946 240.827 207.151C241.539 207.729 242.27 208.326 243.038 208.848C243.844 209.333 244.669 209.762 245.512 210.154L245.325 209.893V209.911ZM283.723 216.401H284.173L285.222 216.923C286.122 217.445 286.965 218.08 287.696 218.807C288.202 219.254 288.689 219.721 289.139 220.243C290.001 221.231 290.919 222.22 291.875 223.171L294.423 225.763C295.398 226.807 296.522 227.852 297.553 228.821H292.193L289.326 226.285C288.352 225.446 287.49 224.532 286.59 223.693C284.622 221.735 282.673 219.721 280.837 217.707L279.656 216.401C278.719 215.469 277.707 214.592 276.658 213.809C277.126 213.529 277.632 213.305 278.157 213.156C278.626 213.007 279.132 213.007 279.6 213.156L280.125 213.548C281.249 214.685 282.523 215.655 283.91 216.476L283.723 216.42V216.401ZM276.545 217.11C277.276 217.707 277.97 218.397 278.569 219.124L282.823 223.6C284.135 224.961 285.428 226.266 286.815 227.497L288.445 228.989H280.874L279.375 227.758L275.327 224.122L273.116 221.977C271.148 220.019 269.199 218.005 267.307 215.935L266.07 214.574C265.395 213.846 264.683 213.175 263.915 212.559C264.402 212.205 264.927 211.907 265.489 211.646H266.669C267.063 211.552 267.457 211.552 267.85 211.646L268.562 212.168C269.743 213.082 270.98 213.921 272.291 214.629L273.472 215.077L274.39 215.469C275.252 215.954 276.058 216.513 276.808 217.166L276.62 217.11H276.545ZM264.983 217.11C266.032 218.341 267.138 219.515 268.244 220.616C269.349 221.716 270.268 222.76 271.242 223.73C272.216 224.7 274.765 227.18 276.602 228.803L277.051 229.194H270.268L268.825 228.019C267.194 226.658 265.695 225.297 264.196 223.861L261.778 221.455C259.623 219.366 257.599 217.166 255.575 214.965L254.132 213.473C252.952 212.205 251.64 211.086 250.216 210.098C249.579 209.669 248.904 209.296 248.192 208.997C248.773 208.587 249.447 208.307 250.16 208.158C250.534 208.102 250.909 208.102 251.265 208.158C251.678 208.065 252.09 208.065 252.502 208.158L253.289 208.736C254.751 209.93 256.363 210.956 258.049 211.795H258.761L259.998 212.373C260.86 212.914 261.703 213.529 262.472 214.201C263.465 215.058 264.364 216.009 265.152 217.054L264.964 217.11H264.983ZM235.261 211.59C235.917 212.242 236.498 212.951 237.098 213.604C237.698 214.257 238.541 215.096 239.197 215.879C239.853 216.662 241.745 218.546 242.982 219.851C245.25 222.182 247.592 224.457 250.028 226.677L252.896 229.138H186.613L187.587 228.169L190.585 225.315L194.446 222.07L196.994 220.373L197.707 219.851C199.843 218.415 201.848 216.811 203.722 215.04C204.79 214.051 205.802 212.97 206.72 211.851C207.508 210.62 208.351 209.445 209.269 208.27C210.187 207.095 210.843 206.517 211.687 205.678C212.53 204.801 213.467 204.018 214.498 203.347C215.153 202.899 215.866 202.508 216.596 202.172L218.171 201.78C219.089 201.65 220.045 201.836 220.85 202.303C221.263 202.321 221.694 202.396 222.087 202.489C222.837 203.123 223.624 203.72 224.43 204.242L227.297 205.939L228.927 206.648L230.033 207.17C230.951 207.673 231.832 208.27 232.638 208.923C233.631 209.725 234.568 210.601 235.449 211.515L235.261 211.571V211.59ZM220.176 252.673C223.399 255.042 227.072 256.795 230.951 257.802C219.501 261.14 207.17 259.256 197.257 252.673H220.176ZM243.095 266.194C243.095 266.194 244.669 257.876 245.568 252.673C246.487 257.876 248.117 266.194 248.117 266.194C248.567 269.01 247.705 271.882 245.774 273.989C243.807 271.863 242.889 268.991 243.301 266.119L243.113 266.175L243.095 266.194ZM270.98 252.673H293.899C283.985 259.256 271.636 261.14 260.204 257.802C264.158 256.795 267.888 255.023 271.167 252.599L270.98 252.655V252.673ZM329.373 170.842C329.242 170.543 329.242 170.226 329.373 169.928C329.336 169.797 329.336 169.667 329.373 169.536C330.16 170.096 330.835 170.767 331.397 171.55C331.435 171.83 331.435 172.11 331.397 172.39C330.629 172.073 329.973 171.494 329.561 170.767L329.373 170.823V170.842ZM311.552 131.008C311.158 131.343 310.577 131.343 310.184 131.008C309.471 130.448 308.984 129.628 308.816 128.733C309.734 128.788 310.596 129.18 311.233 129.833C311.589 130.113 311.72 130.579 311.552 131.008ZM309.659 124.518L312.207 123.679L311.627 126.345H309.528L309.659 124.518ZM304.824 125.04C305.011 124.984 305.217 124.984 305.405 125.04C305.686 124.928 305.986 124.928 306.248 125.04C306.942 125.599 307.429 126.383 307.616 127.241H307.166C306.379 127.073 305.648 126.7 305.068 126.14C304.562 125.861 304.374 125.227 304.655 124.723C304.693 124.648 304.749 124.574 304.805 124.518V125.04H304.824ZM248.979 94.0455C249.56 94.0455 250.085 94.0455 250.085 94.8847C250.085 95.7239 249.56 95.7239 248.979 95.7239C248.023 95.7612 247.067 95.4628 246.299 94.8847C246.974 94.1387 247.967 93.7285 248.979 93.7844V94.0455ZM245.774 88.973L247.142 91.3787L245.831 92.9452L244.463 91.3787L245.774 88.973ZM242.383 95.7985C242.064 95.7985 241.764 95.6866 241.539 95.4815C241.464 95.3136 241.464 95.1271 241.539 94.9593C241.464 94.7915 241.464 94.605 241.539 94.4371C241.839 94.3252 242.158 94.3252 242.458 94.4371C243.413 94.3252 244.369 94.6423 245.062 95.2763C244.219 95.6679 243.282 95.7612 242.383 95.5374V95.7985ZM245.25 111.52C246.543 109.505 247.536 107.324 248.192 105.03C249.073 110.195 248.773 115.473 247.274 120.49L246.037 118.476L241.989 124.965C241.614 120.247 242.757 115.529 245.25 111.52ZM185.357 125.04C185.619 124.909 185.938 124.909 186.2 125.04C186.369 124.947 186.556 124.947 186.725 125.04C186.8 125.208 186.8 125.394 186.725 125.562C186.725 125.898 186.556 126.234 186.275 126.401C185.657 127.091 184.795 127.502 183.858 127.576C183.895 126.495 184.457 125.506 185.357 124.909V125.04ZM179.341 123.548L181.946 124.387V126.476H179.922L179.341 123.548ZM180.578 131.026C180.41 131.082 180.222 131.082 180.054 131.026C179.979 130.84 179.979 130.635 180.054 130.448C180.054 130.113 180.241 129.795 180.503 129.609C181.122 128.938 181.946 128.527 182.846 128.434C182.658 129.404 182.152 130.262 181.403 130.896C181.14 131.045 180.841 131.082 180.56 131.026H180.578ZM161.97 170.86C161.464 171.662 160.658 172.24 159.758 172.483C159.721 172.222 159.721 171.961 159.758 171.7C160.302 170.86 161.014 170.152 161.857 169.611C161.913 169.779 161.913 169.965 161.857 170.133C161.97 170.357 162.026 170.599 161.988 170.842L161.97 170.86ZM146.303 208.289L146.697 206.853C146.828 206.629 147.034 206.499 147.277 206.461C148.346 206.312 149.339 205.92 150.22 205.286C151.1 204.54 152.094 203.944 153.162 203.533C155.055 202.881 155.055 201.202 156.76 198.069C157.809 195.141 158.147 191.99 157.734 188.913C156.891 190.218 155.785 191.337 154.474 192.158C154.455 190.889 154.305 189.621 154.024 188.39C153.911 187.421 153.911 186.432 154.024 185.463C149.714 187.663 149.264 191.952 147.502 193.91C148.008 189.267 148.814 184.679 149.92 180.129C150.819 179.103 152.037 178.413 153.387 178.171C154.38 177.705 155.261 177.015 155.935 176.157C155.973 176.604 156.216 177.015 156.591 177.257C156.872 177.35 157.172 177.35 157.434 177.257H157.884C158.128 177.201 158.353 177.089 158.54 176.94L158.09 179.402C158.09 179.402 157.772 180.502 159.796 180.894C159.346 186.097 156.404 223.991 169.128 245.885L168.21 247.321C166.786 245.848 165.53 244.207 164.481 242.454C164.631 243.461 164.481 244.468 164.031 245.382C163.356 246.668 163.019 248.086 163.056 249.54C162.738 248.496 162.569 247.396 162.607 246.295C163.094 244.673 163.244 242.976 163.056 241.297C162.869 239.358 162.569 237.418 162.138 235.516C162.138 238.183 159.927 238.183 158.934 240.775C158.446 242.193 157.716 243.517 156.779 244.673C156.085 245.643 155.673 246.799 155.598 247.992C154.492 244.878 153.443 241.503 152.525 238.575C152.899 237.363 153.106 236.076 153.106 234.808C154.211 233.838 155.261 233.763 155.71 233.111C156.16 232.458 155.71 231.413 156.497 230.444C157.153 229.381 157.697 228.243 158.128 227.068C159.252 224.42 159.496 221.492 158.84 218.676L157.528 219.198C157.566 218.695 157.678 218.191 157.847 217.707C158.203 214.667 158.053 211.59 157.397 208.606C156.329 209.37 155.354 210.247 154.455 211.198C153.48 212.373 151.775 212.895 151.325 214.312C150.876 215.73 149.826 215.804 149.17 217.24C148.533 218.452 148.158 219.777 148.065 221.138C147.315 217.912 146.828 214.629 146.565 211.329C146.303 210.806 146.247 209.576 146.303 208.27V208.289ZM255.632 308.117C253.364 308.117 251.115 308.639 249.11 309.683C251.678 305.394 254.507 301.272 257.599 297.337C258.967 301.011 258.218 305.151 255.632 308.135V308.117ZM242.57 309.683C240.546 308.657 238.316 308.135 236.048 308.117C233.331 305.133 232.507 300.899 233.893 297.132C237.004 301.049 239.834 305.17 242.383 309.478L242.57 309.664V309.683ZM317.08 279.267C317.136 279.062 317.136 278.838 317.08 278.614C317.623 277.122 317.961 275.574 318.054 274.008C317.773 272.05 317.267 270.129 316.555 268.282C315.899 266.529 314.213 262.501 312.507 261.793C312.507 261.793 311.064 266.343 310.615 268.282C310.296 269.905 309.696 271.471 308.853 272.889L307.804 274.716C307.672 273.653 307.672 272.59 307.804 271.527C307.804 268.338 303.044 263.34 303.044 263.34C302.894 266.231 302.05 269.047 300.57 271.527C299.202 273.597 298.302 275.966 297.965 278.409C297.834 280.106 297.141 281.691 295.997 282.959C294.554 284.973 295.997 293.16 295.997 294.074C292.793 296.088 289.476 298.046 286.271 299.594L283.142 301.03L283.723 300.452C285.99 298.475 287.658 295.901 288.558 293.048C290.057 293.048 286.534 292.396 284.51 292.601C285.691 290.773 287.321 288.311 288.501 286.111C289.682 283.91 280.724 286.689 280.724 286.689L278.382 287.603C279.019 285.607 279.506 283.556 279.825 281.486C279.825 280.777 276.096 282.008 273.303 283.239C271.167 284.526 269.124 285.98 267.232 287.584C264.627 289.207 264.289 293.365 263.109 295.323C262.509 296.368 261.984 297.449 261.535 298.568C261.535 296.61 260.616 295.715 259.829 295.323H259.38L256.512 294.876C253.983 294.428 251.434 295.491 249.991 297.599C248.66 300.881 247.592 304.275 246.786 307.744C246.393 307.669 245.999 307.669 245.606 307.744C245.231 307.688 244.856 307.688 244.5 307.744C243.863 304.144 242.907 300.601 241.689 297.151C240.246 295.044 237.679 293.981 235.168 294.428L232.3 294.876H231.851C230.932 295.323 230.089 296.573 230.014 299.352C229.733 297.748 229.133 296.237 228.253 294.876C227.072 292.918 226.678 288.759 224.13 287.136C222.2 285.533 220.157 284.059 217.983 282.791C215.041 281.56 211.462 280.33 211.462 281.038C211.743 283.108 212.211 285.16 212.83 287.155L210.543 286.241C210.543 286.241 201.848 283.966 202.71 285.663C203.553 287.36 205.521 290.27 206.758 292.153C204.659 292.153 201.136 292.153 202.635 292.601C203.478 295.417 205.015 297.972 207.133 300.004L207.789 300.582C206.608 300.135 205.577 299.613 204.584 299.146C201.455 297.58 198.063 295.64 194.858 293.626C194.858 292.713 196.695 284.526 195.252 282.512C194.127 281.243 193.434 279.658 193.284 277.961C192.909 275.5 191.991 273.15 190.604 271.08C189.105 268.599 188.28 265.783 188.187 262.893C188.187 262.893 183.089 267.891 183.352 271.08C183.464 272.143 183.464 273.206 183.352 274.269C183.033 273.635 182.658 273.019 182.246 272.441C181.422 271.005 180.859 269.439 180.541 267.835C180.016 266.212 178.648 261.345 178.648 261.345C176.887 262.054 175.256 266.082 174.525 267.835C173.832 269.681 173.345 271.602 173.082 273.56C172.764 274.735 173.794 277.01 174.057 278.166C174.019 278.39 174.019 278.595 174.057 278.819C170.309 276.19 167.086 272.907 164.518 269.14C164.612 268.226 164.968 267.369 165.568 266.679C167.086 265.038 168.285 263.135 169.166 261.084C169.428 259.648 169.428 258.175 169.166 256.739C169.316 255.303 169.559 253.867 169.878 252.45H173.926C192.216 266.455 216.634 269.718 237.997 261.028C237.885 261.401 237.716 261.774 237.548 262.128C237.548 262.128 231.026 270.968 245.774 273.952C260.598 270.968 254.076 262.128 254.076 262.128C253.87 261.774 253.683 261.401 253.552 261.028C274.803 269.7 299.071 266.548 317.361 252.711H321.484C321.784 254.128 321.99 255.564 322.14 257C321.915 258.436 321.915 259.909 322.14 261.345C323.02 263.396 324.257 265.299 325.794 266.94C326.319 267.667 326.656 268.525 326.768 269.401C324.22 273.262 320.978 276.619 317.174 279.285H317.117L317.08 279.267Z" fill="white"/>
<path d="M293.502 287.583C292.752 287.545 292.096 288.124 292.059 288.888C292.059 288.907 292.059 288.925 292.059 288.963C292.021 289.746 292.64 290.417 293.427 290.455C293.445 290.455 293.464 290.455 293.502 290.455C294.289 290.455 294.945 289.821 294.945 289.019C294.945 289 294.945 288.981 294.945 288.944C294.907 288.18 294.27 287.583 293.502 287.583Z" fill="white"/>
<path d="M301.73 297.581C300.906 297.581 300.231 298.252 300.231 299.073C300.231 299.856 300.868 300.509 301.674 300.509C301.693 300.509 301.711 300.509 301.749 300.509C302.536 300.509 303.192 299.875 303.192 299.073C303.192 298.271 302.555 297.618 301.749 297.581H301.73Z" fill="white"/>
<path d="M320.791 265.877C320.004 265.877 319.348 266.511 319.348 267.313C319.348 267.332 319.348 267.35 319.348 267.388C319.348 268.171 319.985 268.823 320.791 268.823C321.578 268.823 322.234 268.189 322.234 267.388C322.271 266.604 321.653 265.933 320.866 265.896C320.847 265.896 320.828 265.896 320.791 265.896V265.877Z" fill="white"/>
<path d="M331.062 273.096C331.062 273.972 331.755 274.681 332.636 274.718C333.535 274.718 334.266 273.991 334.266 273.096C334.229 272.219 333.517 271.529 332.636 271.529C331.793 271.585 331.137 272.257 331.062 273.096Z" fill="white"/>
<path d="M334.767 239.1C335.629 239.137 336.36 238.465 336.398 237.608C336.398 237.589 336.398 237.57 336.398 237.533C336.585 236.657 336.004 235.799 335.123 235.612C334.243 235.426 333.381 236.004 333.193 236.88C333.156 237.085 333.156 237.309 333.193 237.533C333.193 238.391 333.887 239.1 334.767 239.1Z" fill="white"/>
<path d="M339.607 207.115C338.745 207.077 338.014 207.749 337.976 208.607C337.976 208.625 337.976 208.644 337.976 208.681C337.976 209.576 338.707 210.304 339.607 210.304C340.487 210.266 341.181 209.558 341.181 208.681C341.218 207.861 340.581 207.152 339.738 207.115C339.7 207.115 339.644 207.115 339.607 207.115Z" fill="white"/>
<path d="M348.564 181.118C349.426 181.156 350.157 180.484 350.194 179.626C350.194 178.731 349.464 178.004 348.564 178.004C347.683 178.041 346.99 178.75 346.99 179.626C347.065 180.447 347.721 181.1 348.564 181.118Z" fill="white"/>
<path d="M337.264 184.046C338.163 184.046 338.894 183.318 338.894 182.423C338.894 181.528 338.163 180.801 337.264 180.801C336.364 180.801 335.633 181.528 335.633 182.423C335.633 183.318 336.364 184.046 337.264 184.046Z" fill="white"/>
<path d="M327.724 158.124C327.686 157.266 326.955 156.595 326.093 156.632C325.25 156.632 324.557 157.285 324.519 158.124C324.332 159.001 324.913 159.859 325.794 160.045C326.674 160.232 327.536 159.653 327.724 158.777C327.761 158.572 327.761 158.348 327.724 158.124Z" fill="white"/>
<path d="M334.582 153.054C335.463 153.24 336.325 152.662 336.513 151.786C336.7 150.909 336.119 150.051 335.238 149.865C335.032 149.828 334.807 149.828 334.582 149.865C333.72 149.865 333.008 150.555 333.008 151.431C332.971 152.289 333.645 153.017 334.508 153.054C334.526 153.054 334.545 153.054 334.582 153.054Z" fill="white"/>
<path d="M350.585 208.997C350.623 209.855 351.354 210.526 352.216 210.489C353.059 210.321 353.602 209.482 353.434 208.643C353.303 208.027 352.834 207.561 352.216 207.431C351.335 207.431 350.623 208.121 350.585 208.997Z" fill="white"/>
<path d="M198.079 287.583C197.33 287.62 196.711 288.198 196.636 288.944C196.636 289.746 197.273 290.399 198.079 290.436C198.904 290.436 199.578 289.765 199.578 288.944C199.541 288.161 198.866 287.545 198.079 287.583Z" fill="white"/>
<path d="M191.351 299.091C191.351 298.289 190.713 297.636 189.908 297.599C189.083 297.636 188.446 298.289 188.408 299.091C188.408 299.874 189.046 300.527 189.851 300.527C189.87 300.527 189.889 300.527 189.926 300.527C190.713 300.527 191.369 299.892 191.369 299.091H191.351Z" fill="white"/>
<path d="M170.778 265.877C169.991 265.877 169.335 266.511 169.335 267.312C169.335 267.331 169.335 267.35 169.335 267.387C169.335 268.17 169.972 268.823 170.778 268.823C171.584 268.991 172.39 268.487 172.559 267.667C172.727 266.865 172.221 266.063 171.397 265.895C171.191 265.858 170.984 265.858 170.778 265.895V265.877Z" fill="white"/>
<path d="M158.972 274.718C159.871 274.718 160.602 273.991 160.602 273.096C160.527 272.238 159.834 271.567 158.972 271.529C158.11 271.529 157.398 272.219 157.398 273.096C157.36 273.954 158.035 274.681 158.897 274.718C158.916 274.718 158.934 274.718 158.972 274.718Z" fill="white"/>
<path d="M156.741 235.908C155.86 235.946 155.166 236.654 155.166 237.531C155.129 238.351 155.766 239.06 156.609 239.097C156.647 239.097 156.703 239.097 156.741 239.097C157.621 239.097 158.333 238.407 158.371 237.531C158.333 236.654 157.621 235.946 156.741 235.908Z" fill="white"/>
<path d="M148.457 240.403C148.457 239.546 147.763 238.837 146.882 238.837C146.002 238.837 145.29 239.527 145.252 240.403C145.252 241.299 145.983 242.026 146.882 242.026C147.763 241.989 148.457 241.28 148.457 240.403Z" fill="white"/>
<path d="M151.906 210.304C152.806 210.304 153.537 209.576 153.537 208.681C153.537 207.823 152.843 207.115 151.962 207.115C151.944 207.115 151.925 207.115 151.887 207.115C151.025 207.022 150.257 207.637 150.163 208.495C150.163 208.663 150.163 208.831 150.182 208.998C150.351 209.8 151.063 210.341 151.887 210.304H151.906Z" fill="white"/>
<path d="M143.022 181.118C143.884 181.118 144.577 180.466 144.652 179.626C144.652 178.731 143.921 178.004 143.022 178.004C142.16 178.004 141.448 178.694 141.448 179.57C141.448 179.589 141.448 179.608 141.448 179.645C141.448 180.466 142.122 181.137 142.947 181.137C142.965 181.137 142.984 181.137 143.022 181.137V181.118Z" fill="white"/>
<path d="M154.399 180.857C153.519 180.671 152.656 181.249 152.469 182.125C152.282 183.002 152.863 183.86 153.743 184.046C153.95 184.084 154.174 184.084 154.399 184.046C155.261 184.046 155.973 183.356 155.973 182.48C155.973 182.461 155.973 182.442 155.973 182.405C155.973 181.547 155.28 180.839 154.399 180.839V180.857Z" fill="white"/>
<path d="M163.939 158.125C163.939 159.001 164.632 159.71 165.513 159.747C166.412 159.747 167.143 159.02 167.143 158.125C167.068 157.286 166.356 156.633 165.513 156.633C164.67 156.633 163.976 157.286 163.939 158.125Z" fill="white"/>
<path d="M156.737 153.054C157.618 153.24 158.48 152.662 158.667 151.786C158.855 150.909 158.274 150.051 157.393 149.865C157.187 149.828 156.962 149.828 156.737 149.865C155.856 150.051 155.276 150.909 155.463 151.786C155.594 152.42 156.1 152.923 156.737 153.054Z" fill="white"/>
<path d="M140.999 208.999C141.037 208.141 140.362 207.414 139.5 207.376C138.638 207.339 137.907 208.011 137.87 208.868C137.832 209.726 138.507 210.454 139.369 210.491C139.388 210.491 139.406 210.491 139.425 210.491C140.268 210.491 140.962 209.838 140.999 208.999Z" fill="white"/>
<path d="M226.96 186.656C227.672 186.656 227.878 186.656 228.141 187.364H228.59L228.141 186.395L230.952 185.22V184.642L227.035 186.395L226.979 186.656H226.96Z" fill="white"/>
<path d="M226.039 181.715H225.515L225.964 183.86H228.382V183.021C228.063 182.946 227.82 182.685 227.726 182.368C227.595 181.846 227.932 181.324 228.438 181.193C228.925 181.044 229.431 181.287 229.6 181.771C229.6 181.79 229.6 181.827 229.619 181.846C229.619 182.368 229.619 182.76 229.094 182.89V183.468C229.769 183.245 230.162 182.517 229.937 181.846C229.825 181.063 229.094 180.522 228.307 180.634C228.232 180.634 228.176 180.652 228.101 180.671C227.351 180.82 226.883 181.548 227.033 182.294C227.033 182.312 227.033 182.349 227.033 182.368C227.107 182.667 227.295 182.909 227.557 183.077H226.377L225.983 181.715H226.039Z" fill="white"/>
<path d="M226.305 178.208C226.811 178.227 227.261 177.91 227.411 177.425V176.511C227.411 175.803 227.411 175.598 228.254 175.672C229.097 175.747 228.91 176.455 228.835 176.847C228.76 177.239 228.835 178.022 227.729 177.947V178.526C228.16 178.619 228.61 178.47 228.91 178.134C229.229 177.798 229.416 177.369 229.435 176.903C229.435 176.12 229.435 175.15 228.254 175.075C227.692 175.001 227.186 175.374 227.073 175.915L226.624 177.146C226.586 177.444 226.343 177.668 226.043 177.668C225.387 177.668 225.331 176.959 225.387 176.567C225.349 176.064 225.724 175.635 226.23 175.598C226.268 175.598 226.324 175.598 226.361 175.598V175.02C225.837 175.02 224.993 175.02 224.862 176.642C224.712 177.351 225.162 178.041 225.874 178.19C226.024 178.227 226.155 178.227 226.305 178.19V178.208Z" fill="white"/>
<path d="M230.8 171.57L230.35 171.44L229.488 173.92L228.064 173.454L228.851 171.253L228.383 171.048L227.596 173.323L226.359 172.876L227.146 170.47L226.621 170.265L225.647 173.323L229.826 174.629L230.8 171.57Z" fill="white"/>
<path d="M231.4 170.654L229.826 169.61L230.538 168.51C230.951 167.913 230.801 167.111 230.201 166.701C230.164 166.682 230.126 166.645 230.07 166.626C229.808 166.496 229.489 166.496 229.227 166.626C228.871 166.719 228.552 166.962 228.383 167.279L227.409 168.901L231.063 171.177L231.382 170.654H231.4ZM228.14 168.51L228.796 167.54C228.796 167.54 229.189 167.092 229.451 167.148C229.733 167.372 229.808 167.764 229.583 168.062C229.545 168.118 229.508 168.155 229.451 168.193L228.927 169.107L228.14 168.528V168.51Z" fill="white"/>
<path d="M231.14 164.485L233.932 167.152L234.27 166.704L231.59 164.093L232.639 162.993L232.171 162.676L229.753 165.212L230.091 165.529L231.14 164.485Z" fill="white"/>
<path d="M236.216 165.138L233.611 161.688L233.161 162.023L235.766 165.455L236.216 165.138Z" fill="white"/>
<path d="M239.816 163.064L239.554 162.673L237.211 163.829L236.611 162.598L238.635 161.423L238.448 160.976L236.293 162.076L235.712 160.92L237.998 159.745L237.792 159.223L234.925 160.715L236.949 164.556L239.816 163.064Z" fill="white"/>
<path d="M240.863 162.804L240.282 160.212C240.226 159.876 240.226 159.522 240.282 159.167L242.306 162.487H242.831L243.281 158.72C243.318 159.074 243.318 159.41 243.281 159.764L243.805 162.226H244.386L243.468 157.937H242.625L242.231 161.834L240.207 158.515H239.364L240.338 162.748L240.863 162.804Z" fill="white"/>
<path d="M246.859 162.08C247.833 162.08 248.433 161.632 248.433 160.905C248.489 160.401 248.152 159.935 247.646 159.804C248.021 159.655 248.264 159.301 248.227 158.891C248.227 158.313 248.227 157.79 247.121 157.716H245.228V162.061H246.859V162.08ZM245.884 158.238H246.802C247.458 158.238 247.646 158.238 247.646 158.816C247.646 159.394 247.327 159.394 246.728 159.338H245.753L245.884 158.238ZM246.802 160.122C247.252 160.122 247.721 160.122 247.721 160.83C247.721 161.539 247.721 161.539 246.802 161.539H245.697V160.177L246.802 160.122Z" fill="white"/>
<path d="M249.933 160.659L251.301 161.051C252.014 161.051 251.957 161.629 251.882 162.021C251.807 162.356 251.807 162.711 251.882 163.065H252.538V160.92C252.538 160.79 253.25 160.92 253.382 160.081C253.513 159.242 253.382 158.776 252.332 158.589L250.364 157.937L249.184 162.17H249.765L249.896 160.678L249.933 160.659ZM250.646 158.832L251.882 159.279C251.882 159.279 252.594 159.279 252.332 160.063C252.07 160.846 251.807 160.585 251.414 160.51L250.177 160.118L250.627 158.813L250.646 158.832Z" fill="white"/>
<path d="M255.553 165.135L255.815 164.744L253.585 163.382L254.241 162.152L256.34 163.308L256.659 162.935L254.578 161.685L255.234 160.585L257.446 161.89L257.764 161.368L254.972 159.802L252.817 163.513L255.553 165.135Z" fill="white"/>
<path d="M258.292 167.86C259.098 168.661 260.41 168.661 261.234 167.86C262.096 167.281 262.34 166.107 261.759 165.249C261.721 165.193 261.665 165.118 261.628 165.062L260.522 163.757L257.186 166.48L258.292 167.841V167.86ZM261.234 165.454C261.684 166.032 261.628 166.629 261.234 167.337C260.841 168.046 259.735 167.916 259.267 167.337L258.611 166.554L260.897 164.596L261.215 165.435L261.234 165.454Z" fill="white"/>
<path d="M261.235 172.614L261.704 172.409L260.523 170.078L261.835 169.425L262.94 171.57L263.39 171.309L262.284 169.239L263.521 168.586L264.627 170.861L265.152 170.656L263.652 167.803L259.736 169.761L261.235 172.614Z" fill="white"/>
<path d="M264.891 175.413L261.893 175.805V176.383L266.147 175.731V175.339C265.491 175.339 265.435 175.339 265.229 174.369H264.779L264.91 175.413H264.891Z" fill="white"/>
<path d="M265.284 177.95C264.89 177.875 264.515 178.117 264.441 178.509C264.441 178.509 264.441 178.509 264.441 178.528C264.291 178.043 263.841 177.688 263.335 177.688C262.96 177.688 262.623 177.819 262.36 178.08C262.136 178.378 262.023 178.751 262.042 179.124C261.929 179.796 262.398 180.43 263.073 180.542C263.147 180.542 263.222 180.542 263.279 180.542C263.747 180.635 264.216 180.393 264.384 179.964C264.497 180.318 264.853 180.56 265.228 180.542C265.752 180.542 266.408 180.542 266.408 179.236C266.521 178.64 266.108 178.061 265.509 177.95C265.434 177.95 265.359 177.95 265.303 177.95H265.284ZM263.26 179.964C262.604 179.964 262.548 179.441 262.548 179.124C262.548 178.807 262.998 178.416 263.335 178.416C263.691 178.416 264.01 178.677 264.01 179.031C264.01 179.106 264.01 179.18 263.972 179.255C264.01 179.609 263.747 179.926 263.391 179.964C263.354 179.964 263.297 179.964 263.26 179.964ZM265.284 179.964C264.909 179.908 264.628 179.572 264.628 179.18C264.628 178.789 264.628 178.602 265.284 178.602C265.94 178.602 265.865 178.602 265.809 179.255C265.752 179.908 265.49 179.964 265.284 179.964Z" fill="white"/>
<path d="M264.623 181.455V182.033C264.623 182.033 265.598 182.033 265.41 183.077C265.223 184.122 264.754 183.86 264.492 183.73C264.23 183.599 263.78 183.208 263.649 182.76V182.107C263.442 181.436 262.899 180.914 262.206 180.746L261.494 183.543H261.943L262.524 181.212C262.843 181.417 263.049 181.753 263.105 182.126V182.648C263.105 183.357 263.499 183.954 264.211 184.084C264.923 184.233 265.616 183.805 265.766 183.096C265.766 183.096 265.766 183.059 265.766 183.04C265.841 182.294 265.335 181.604 264.586 181.473L264.623 181.455Z" fill="white"/>
<path d="M263.783 185.481L263.39 186.394L260.654 185.089V185.611L264.571 187.439V187.047C264.046 186.599 264.121 186.338 264.571 185.611L263.783 185.481Z" fill="white"/>
<path d="M240.471 200.813H240.921L244.125 187.814H243.675L240.546 200.813H240.49H240.471Z" fill="white"/>
<path d="M240.022 195.162H240.472L243.152 187.367H242.702L240.097 194.976L240.041 195.162H240.022Z" fill="white"/>
<path d="M235.506 199.974H235.899L242.421 186.976H241.971L235.824 199.974H235.506Z" fill="white"/>
<path d="M234.531 197.828L241.052 186.788H240.659L234.137 197.772L234.531 197.828Z" fill="white"/>
<path d="M230.349 197.959H230.742L240.281 185.874H239.888L230.349 197.959Z" fill="white"/>
<path d="M231.007 194.973L239.439 185.686L230.95 195.047L231.007 194.991V194.973Z" fill="white"/>
<path d="M238.709 184.961L226.228 195.871V196.262L238.634 185.353L238.69 184.961H238.709Z" fill="white"/>
<path d="M237.998 184.177V183.785L231.476 188.391V188.783L237.998 184.177Z" fill="white"/>
<path d="M237.395 183.336V182.889L232.766 185.481V185.872L237.395 183.336Z" fill="white"/>
<path d="M231.906 184.176V184.623L236.741 182.479V182.087L231.906 184.176Z" fill="white"/>
<path d="M231.325 182.684L231.531 183.131L236.422 181.583L236.554 181.509L236.422 181.117L231.325 182.684Z" fill="white"/>
<path d="M236.291 180.598C236.272 180.449 236.272 180.3 236.291 180.15L231.062 181.251V181.698L236.291 180.598Z" fill="white"/>
<path d="M230.671 179.701V180.149L236.031 179.627C236.069 179.459 236.069 179.272 236.031 179.104L230.671 179.683V179.701Z" fill="white"/>
<path d="M230.671 177.166L235.956 177.614V177.166L230.728 176.719L230.671 177.166Z" fill="white"/>
<path d="M230.876 175.467L236.161 176.642V176.194L230.876 175.02V175.467Z" fill="white"/>
<path d="M231.271 174.051L236.294 175.748C236.331 175.599 236.331 175.449 236.294 175.3L231.271 173.678V174.069V174.051Z" fill="white"/>
<path d="M231.906 172.149V172.597L236.872 174.686V174.294L232.037 172.205L231.906 172.149Z" fill="white"/>
<path d="M232.432 171.179L237.135 173.771V173.379L232.375 170.787L232.432 171.179Z" fill="white"/>
<path d="M233.293 170.005L237.604 173.063V172.746L233.293 169.688V170.005Z" fill="white"/>
<path d="M234.66 168.326L238.652 171.776L234.735 168.401L234.679 168.345L234.66 168.326Z" fill="white"/>
<path d="M235.766 167.224H235.448L239.046 170.991H239.439L235.841 167.28L235.785 167.224H235.766Z" fill="white"/>
<path d="M236.947 166.312H236.629L239.889 170.415L240.208 170.098L237.078 166.126L236.947 166.312Z" fill="white"/>
<path d="M238.447 165.397H238.054L240.659 169.817H241.052L238.503 165.472L238.447 165.416V165.397Z" fill="white"/>
<path d="M239.814 164.818H239.364L241.575 169.425H241.969L239.87 164.949L239.814 164.818Z" fill="white"/>
<path d="M241.653 164.297H241.203L242.908 169.108H243.358L241.653 164.427V164.297Z" fill="white"/>
<path d="M242.889 163.83H242.439L243.489 168.903H244.013L242.964 163.905L242.908 163.849L242.889 163.83Z" fill="white"/>
<path d="M244.594 168.848H245.042L244.519 163.515H244.071L244.594 168.848Z" fill="white"/>
<path d="M245.96 163.515H245.512V168.643H245.96V163.515Z" fill="white"/>
<path d="M246.488 168.773H246.936L247.459 163.57H247.011L246.488 168.773Z" fill="white"/>
<path d="M248.172 169.035L249.222 163.906H248.772L247.722 169.035H248.172Z" fill="white"/>
<path d="M250.535 164.427H250.085L248.455 169.238H248.904L250.535 164.501V164.445V164.427Z" fill="white"/>
<path d="M251.961 165.007H251.511L249.412 169.614H249.805L251.904 164.933L251.961 164.989V165.007Z" fill="white"/>
<path d="M252.82 165.397L250.328 169.817L250.272 169.873L250.722 170.134L253.214 165.659L252.82 165.397Z" fill="white"/>
<path d="M251.116 170.339H251.509L254.639 166.236H254.245L251.116 170.339Z" fill="white"/>
<path d="M251.903 171.047L252.222 171.382L255.689 167.597L255.82 167.541L255.426 167.224L251.903 171.047Z" fill="white"/>
<path d="M256.462 168.319L252.568 171.791L252.869 172.124L256.763 168.652L256.462 168.319Z" fill="white"/>
<path d="M253.402 172.538V172.855L257.525 169.871V169.479L253.402 172.538Z" fill="white"/>
<path d="M253.925 173.268C253.944 173.417 253.944 173.566 253.925 173.715L258.423 171.179V170.731L253.925 173.268Z" fill="white"/>
<path d="M254.711 174.238V174.685L259.415 172.597V172.205L254.711 174.219V174.238Z" fill="white"/>
<path d="M254.711 175.206C254.711 175.356 254.711 175.505 254.711 175.654L259.546 174.032V173.584L254.711 175.206Z" fill="white"/>
<path d="M254.714 176.121C254.695 176.27 254.695 176.42 254.714 176.569L259.811 175.394V174.946L254.714 176.121Z" fill="white"/>
<path d="M255.106 177.091C255.144 177.24 255.144 177.389 255.106 177.538L260.129 177.091V176.513L255.106 177.091Z" fill="white"/>
<path d="M255.238 178.341H260.392V177.894H255.238V178.341Z" fill="white"/>
<path d="M255.106 180.019C255.106 180.168 255.106 180.317 255.106 180.466L260.072 181.641V181.193L255.106 180.019Z" fill="white"/>
<path d="M260.26 180.093V179.645L255.106 179.067C255.144 179.179 255.144 179.291 255.106 179.384L260.129 179.963L260.26 180.093Z" fill="white"/>
<path d="M259.547 183.002V182.554L254.712 181.062C254.674 181.193 254.674 181.324 254.712 181.454L259.415 183.021H259.547V183.002Z" fill="white"/>
<path d="M254.711 181.977V182.424L259.284 184.438V183.991L254.711 181.977Z" fill="white"/>
<path d="M253.851 183.003L258.161 185.539V185.092L254.039 183.003H253.851Z" fill="white"/>
<path d="M253.27 184.047L259.792 188.727V188.336L253.27 183.729C253.27 183.729 253.401 183.916 253.27 184.047Z" fill="white"/>
<path d="M252.953 184.514V184.905L264.515 196.02V195.703L252.503 184.849L252.953 184.532V184.514Z" fill="white"/>
<path d="M251.903 185.536L259.999 194.823H260.392L252.297 185.536H251.903Z" fill="white"/>
<path d="M251.19 186.135L260.335 198.22L260.729 197.903L251.527 185.874L251.209 186.135H251.19Z" fill="white"/>
<path d="M250.195 186.712L256.716 197.566H257.11L250.588 186.656L250.195 186.712Z" fill="white"/>
<path d="M249.354 187.16L255.238 200.158H255.688L249.747 187.16H249.354Z" fill="white"/>
<path d="M248.173 187.498L250.646 195.107H251.096L248.491 187.367L248.173 187.498Z" fill="white"/>
<path d="M247.385 187.759L250.459 200.757H250.909L247.835 187.759H247.385Z" fill="white"/>
<path d="M201.474 273.99C201.474 273.99 199.975 275.743 200.819 277.179C201.643 278.186 203.124 278.335 204.117 277.534C204.248 277.422 204.36 277.31 204.473 277.179C204.473 277.179 200.875 277.31 201.474 273.99Z" fill="white"/>
<path d="M287.359 277.255C288.184 278.262 289.664 278.412 290.657 277.61C290.789 277.498 290.901 277.386 291.013 277.255C291.857 275.819 290.358 274.066 290.358 274.066C290.62 277.311 287.359 277.255 287.359 277.255Z" fill="white"/>
<path d="M214.874 272.312L214.087 271.864L212.194 275.053L212.981 275.501C213.731 276.06 214.799 275.892 215.361 275.146C215.436 275.053 215.492 274.96 215.53 274.848C216.092 274.102 215.923 273.039 215.174 272.48C215.08 272.405 214.986 272.349 214.874 272.312Z" fill="white"/>
<path d="M221.129 275.556C220.229 275.109 219.123 275.482 218.674 276.396C218.674 276.414 218.655 276.452 218.636 276.47C218.168 277.403 218.542 278.54 219.479 279.006C220.435 279.454 221.578 279.044 222.028 278.093C222.478 277.142 222.066 276.004 221.11 275.556H221.129Z" fill="white"/>
<path d="M242.885 281.151C241.873 281.076 241.011 281.841 240.936 282.829C240.936 282.848 240.936 282.885 240.936 282.904C240.936 283.911 241.76 284.731 242.772 284.731C243.784 284.731 244.609 283.911 244.609 282.904C244.571 281.971 243.84 281.206 242.903 281.151H242.885Z" fill="white"/>
<path d="M260.521 281.414H259.471L259.865 283.036H260.971C261.402 282.962 261.683 282.551 261.589 282.122C261.589 282.085 261.57 282.029 261.552 281.992C261.477 281.563 261.064 281.283 260.633 281.376C260.596 281.376 260.54 281.395 260.502 281.414H260.521Z" fill="white"/>
<path d="M260.841 279.919C260.71 279.546 260.317 279.304 259.923 279.397H258.948L259.342 280.833H260.317C260.673 280.796 260.935 280.479 260.897 280.106C260.897 280.031 260.879 279.975 260.841 279.919Z" fill="white"/>
<path d="M267.775 276.992H266.332L266.988 278.689L267.906 278.298C268.356 278.167 268.618 277.682 268.469 277.253C268.469 277.216 268.45 277.179 268.431 277.142C268.244 276.992 268 276.955 267.775 277.011V276.992Z" fill="white"/>
<path d="M274.297 274.644V276.266L275.665 275.558L274.297 274.457V274.01C274.316 274.234 274.316 274.439 274.297 274.662V274.644Z" fill="white"/>
<path d="M288.274 274.98L286.7 274.402C287.787 273.992 288.948 273.88 290.092 274.085L288.199 272.388C284.282 268.882 278.585 268.154 273.9 270.56C256.66 281.209 234.846 281.209 217.606 270.56C212.939 268.136 207.261 268.863 203.363 272.388L201.471 274.085C202.614 273.898 203.776 274.01 204.862 274.402L203.288 274.98C205.312 275.763 204.469 277.255 204.469 277.255L206.886 275.11C210.578 276.658 214.139 278.43 217.606 280.444C226.188 285.256 235.896 287.699 245.753 287.531C255.591 287.736 265.317 285.311 273.9 280.519C277.348 278.505 280.928 276.733 284.62 275.185L287.093 277.33C287.093 277.33 286.25 275.763 288.274 274.999V274.98ZM212.714 276.024L211.271 275.241L213.82 270.952L215.263 271.791C216.481 272.406 216.968 273.898 216.35 275.11C215.732 276.323 214.232 276.808 213.014 276.192C212.902 276.136 212.808 276.08 212.714 276.006V276.024ZM216.238 278.038H215.582L217.924 273.693L218.58 274.01L216.238 278.038ZM219.236 279.605C217.962 279.008 217.399 277.498 217.999 276.229C218.599 274.961 220.117 274.402 221.391 274.999C222.665 275.577 223.228 277.087 222.647 278.355C222.103 279.605 220.641 280.183 219.386 279.661C219.348 279.642 219.292 279.624 219.255 279.605H219.236ZM226.151 278.113C225.964 277.777 225.664 277.498 225.308 277.33C224.933 277.125 224.446 277.255 224.24 277.628C224.24 277.665 224.202 277.684 224.202 277.721C223.808 278.635 226.17 279.288 225.57 280.78C225.214 281.507 224.352 281.824 223.602 281.488C222.965 281.377 222.403 281.041 222.028 280.519L222.553 280.202C222.778 280.649 223.134 280.985 223.602 281.171C223.996 281.358 224.464 281.171 224.652 280.798C225.045 279.829 222.684 279.176 223.284 277.74C223.602 277.013 224.446 276.677 225.177 276.994C225.195 276.994 225.233 277.013 225.251 277.031C225.739 277.199 226.132 277.553 226.357 278.001L226.17 278.132L226.151 278.113ZM230.274 283.633C229.281 283.447 228.625 282.514 228.793 281.526C228.793 281.47 228.812 281.414 228.831 281.358L229.674 278.299H230.33L229.487 281.358C229.43 282.067 229.974 282.701 230.705 282.738C231.248 282.775 231.735 282.477 231.979 282.011L232.766 278.952H233.478L232.635 282.067C232.579 283.036 231.754 283.782 230.78 283.726C230.611 283.726 230.442 283.689 230.293 283.633H230.274ZM237.32 285.069H236.664L235.09 281.358C235.071 281.078 235.071 280.798 235.09 280.519C235.109 280.761 235.109 281.004 235.09 281.227L234.509 284.416H233.853L234.696 279.549H235.409L236.983 283.13L237.301 283.913C237.282 283.67 237.282 283.428 237.301 283.204L237.882 280.015H238.538L237.301 285.088L237.32 285.069ZM239.213 285.069H238.501L239.082 280.127H239.794L239.213 285.069ZM242.605 285.386C241.237 285.349 240.15 284.23 240.187 282.868C240.187 282.831 240.187 282.775 240.187 282.738C240.262 281.339 241.462 280.258 242.867 280.332C244.235 280.369 245.322 281.488 245.284 282.85C245.284 282.887 245.284 282.943 245.284 282.98C245.359 284.342 244.31 285.517 242.942 285.591C242.83 285.591 242.717 285.591 242.605 285.591V285.405V285.386ZM249.126 285.386L246.784 282.272L246.39 281.563C246.39 281.805 246.39 282.048 246.39 282.272V285.517H245.678V280.575H246.39L248.676 283.689L249.126 284.342C249.126 284.118 249.126 283.913 249.126 283.689V280.444H249.838V285.386H249.126ZM253.755 284.938L253.23 280.519H253.942L254.598 284.808L256.809 284.491V285.069L253.736 284.938H253.755ZM257.222 284.36L256.247 279.493H256.903L257.953 284.304L257.241 284.36H257.222ZM260.82 283.521L259.115 283.969L257.803 279.157L259.508 278.71C260.183 278.467 260.932 278.822 261.176 279.512C261.176 279.549 261.195 279.586 261.213 279.624C261.438 279.978 261.438 280.444 261.213 280.798C261.776 280.798 262.263 281.209 262.319 281.768C262.506 282.738 261.925 283.391 261.213 283.652L260.82 283.521ZM263.294 282.812L261.719 278.132L264.455 277.218V277.796L262.357 278.449L262.881 279.941L264.587 279.362V279.941L262.956 280.519L263.406 282.011L265.617 281.302V281.88L263.275 282.794L263.294 282.812ZM269.815 280.537L268.11 279.101L267.135 279.493L267.847 281.321H267.191L265.355 276.77L266.723 276.192H267.641C268.241 276.211 268.766 276.602 268.953 277.162C269.253 277.647 269.253 278.244 268.953 278.728L270.658 280.164L269.815 280.556V280.537ZM272.232 279.437L270.396 275.539L268.822 276.248V275.726L272.289 274.029V274.551L270.715 275.26L272.607 279.232L272.214 279.418L272.232 279.437ZM277.199 276.901L276.093 275.856L274.463 276.77V278.262H273.807L273.02 273.059L273.675 272.742L277.592 276.248L277.199 276.901ZM279.747 275.409L278.379 276.248L275.774 272.089L277.142 271.176C278.192 270.411 279.653 270.635 280.422 271.679C280.478 271.772 280.553 271.866 280.59 271.959C281.415 272.91 281.303 274.346 280.347 275.166C280.159 275.316 279.972 275.446 279.747 275.539V275.409Z" fill="white"/>
<path d="M277.427 271.845L276.64 272.292L278.664 275.481L279.451 274.959C280.276 274.512 280.576 273.486 280.145 272.665C280.107 272.572 280.051 272.497 279.976 272.423C279.564 271.584 278.533 271.248 277.69 271.677C277.596 271.733 277.502 271.789 277.427 271.845Z" fill="white"/>
</svg>
